<?xml version="1.0" encoding="UTF-8" standalone="no"?>
<!-- Created with Inkscape (http://www.inkscape.org/) -->

<svg
   xmlns:dc="http://purl.org/dc/elements/1.1/"
   xmlns:cc="http://creativecommons.org/ns#"
   xmlns:rdf="http://www.w3.org/1999/02/22-rdf-syntax-ns#"
   xmlns:svg="http://www.w3.org/2000/svg"
   xmlns="http://www.w3.org/2000/svg"
   xmlns:sodipodi="http://sodipodi.sourceforge.net/DTD/sodipodi-0.dtd"
   xmlns:inkscape="http://www.inkscape.org/namespaces/inkscape"
   width="143.78"
   height="33.908649"
   id="svg6750"
   version="1.1"
   inkscape:version="0.48.4 r9939"
   sodipodi:docname="New document 21">
  <defs
     id="defs6752" />
  <sodipodi:namedview
     id="base"
     pagecolor="#ffffff"
     bordercolor="#666666"
     borderopacity="1.0"
     inkscape:pageopacity="0.0"
     inkscape:pageshadow="2"
     inkscape:zoom="2.8"
     inkscape:cx="129.0829"
     inkscape:cy="6.379285"
     inkscape:document-units="px"
     inkscape:current-layer="layer1"
     showgrid="false"
     fit-margin-top="0"
     fit-margin-left="0"
     fit-margin-right="0"
     fit-margin-bottom="0"
     inkscape:window-width="992"
     inkscape:window-height="800"
     inkscape:window-x="472"
     inkscape:window-y="189"
     inkscape:window-maximized="0" />
  <metadata
     id="metadata6755">
    <rdf:RDF>
      <cc:Work
         rdf:about="">
        <dc:format>image/svg+xml</dc:format>
        <dc:type
           rdf:resource="http://purl.org/dc/dcmitype/StillImage" />
        <dc:title></dc:title>
      </cc:Work>
    </rdf:RDF>
  </metadata>
  <g
     inkscape:label="Layer 1"
     inkscape:groupmode="layer"
     id="layer1"
     transform="translate(-245.25286,-413.62209)">
    <g
       id="g6832"
       transform="translate(-74.285714,-64.571429)">
      <path
         inkscape:connector-curvature="0"
         id="path5517"
         style="fill:#000000;fill-opacity:1;fill-rule:evenodd;stroke:none"
         d="m 463.31857,502.3362 c -2.5375,-0.0113 -5.075,-0.0238 -7.6125,-0.035 -0.28,-10e-4 -0.56125,-10e-4 -0.88,-10e-4 0,-4.77375 0,-9.45625 0,-14.1925 2.525,0 5.025,0 7.57375,0 0,0.59375 0,1.17875 0,1.84 -1.55125,0 -3.095,0 -4.6875,0 0,1.3275 0,2.58 0,3.8975 1.52,0 3.01875,0 4.565,0 0,0.6475 0,1.23125 0,1.9175 -1.51375,0 -3.03,0 -4.57375,0 0,1.57625 0,3.04875 0,4.56125 1.89875,0 3.7575,0 5.615,0 0,0.67125 0,1.3425 0,2.0125" />
      <path
         inkscape:connector-curvature="0"
         id="path5519"
         style="fill:#000000;fill-opacity:1;fill-rule:evenodd;stroke:none"
         d="m 341.97982,495.25745 c 0.0137,-6.0275 -4.81875,-10.88875 -10.8325,-10.89875 -5.99375,-0.009 -10.87,4.8125 -10.8925,10.77125 -0.0225,6.02625 4.805,10.91625 10.8,10.9425 6.01875,0.025 10.91,-4.81625 10.925,-10.815 z m -9.50125,-11.6125 c 0.55,0.135 1.10375,0.2575 1.65125,0.405 5.375,1.45 8.88375,6.38875 8.545,12.0225 -0.32125,5.3275 -4.5475,9.825 -9.945,10.59125 -0.135,0.0188 -0.26375,0.0863 -0.395,0.13 -0.815,0 -1.63,0 -2.445,0 -0.13,-0.045 -0.2575,-0.1125 -0.39125,-0.1325 -4.6425,-0.65875 -8.38875,-3.995 -9.5875,-8.5525 -0.145,-0.55 -0.25,-1.11 -0.3725,-1.6675 0,-0.81375 0,-1.62875 0,-2.44375 0.045,-0.1825 0.1075,-0.36125 0.135,-0.54625 0.72,-4.61375 4.165,-8.37875 8.6825,-9.47625 0.50875,-0.12375 1.02375,-0.22 1.53375,-0.33 0.86375,0 1.72625,0 2.58875,0" />
      <path
         inkscape:connector-curvature="0"
         id="path5521"
         style="fill:#ffffff;fill-opacity:1;fill-rule:evenodd;stroke:none"
         d="m 319.53857,496.4412 c 0.1225,0.5575 0.2275,1.1175 0.3725,1.6675 1.19875,4.5575 4.945,7.89375 9.5875,8.5525 0.13375,0.02 0.26125,0.0875 0.39125,0.1325 -3.4375,0 -6.8775,0 -10.35125,0 0,-3.45125 0,-6.90125 0,-10.3525" />
      <path
         inkscape:connector-curvature="0"
         id="path5523"
         style="fill:#ffffff;fill-opacity:1;fill-rule:evenodd;stroke:none"
         d="m 329.88982,483.64495 c -0.51,0.11 -1.025,0.20625 -1.53375,0.33 -4.5175,1.0975 -7.9625,4.8625 -8.6825,9.47625 -0.0275,0.185 -0.09,0.36375 -0.135,0.54625 0,-3.43875 0,-6.8775 0,-10.3525 3.45,0 6.90125,0 10.35125,0" />
      <path
         inkscape:connector-curvature="0"
         id="path5525"
         style="fill:#000000;fill-opacity:1;fill-rule:evenodd;stroke:none"
         d="m 396.02857,489.8187 c 0,1.4425 0,2.7875 0,4.12375 1.425,0.13 2.345,-0.1125 2.9775,-0.80125 0.595,-0.64875 0.80875,-1.41 0.485,-2.24875 -0.3075,-0.8 -1.00375,-1.03625 -1.785,-1.07 -0.54375,-0.0238 -1.09,-0.004 -1.6775,-0.004 z m -0.0188,10.76125 c 0.8175,-0.0462 1.56375,-0.0238 2.2875,-0.14375 1.20125,-0.2 1.91625,-1.125 1.91375,-2.33375 -0.002,-1.21375 -0.645,-2.02875 -1.8875,-2.24375 -0.7425,-0.1275 -1.50875,-0.1175 -2.31375,-0.1725 0,1.66125 0,3.20625 0,4.89375 z m -2.85125,-12.44375 c 2.11375,0 4.19875,-0.115 6.26375,0.0363 1.68625,0.12375 2.71375,1.185 2.90375,2.53375 0.20375,1.44375 -0.59125,2.82625 -2.045,3.55 -0.16875,0.085 -0.345,0.155 -0.6375,0.28375 0.31375,0.0813 0.5125,0.12875 0.70875,0.185 1.435,0.40625 2.54625,1.20375 2.8175,2.7425 0.28375,1.6075 -0.3,2.955 -1.68875,3.82875 -0.6325,0.39875 -1.39125,0.78125 -2.1125,0.81875 -2.04625,0.11 -4.10125,0.0387 -6.21,0.0387 0,-4.60625 0,-9.28875 0,-14.0175" />
      <path
         inkscape:connector-curvature="0"
         id="path5527"
         style="fill:#000000;fill-opacity:1;fill-rule:evenodd;stroke:none"
         d="m 360.75857,502.26245 c -0.93875,0 -1.83625,0 -2.80875,0 0,-2.27375 0,-4.51125 0,-6.7875 -2.00375,0 -3.93125,0 -5.9525,0 0,2.2375 0,4.47125 0,6.765 -0.9825,0 -1.87375,0 -2.82875,0 0,-4.6975 0,-9.395 0,-14.13875 0.9125,0 1.81,0 2.8,0 0,1.43 -0.006,2.83625 0.002,4.2425 0.009,1.38125 -0.15625,1.17625 1.175,1.18375 1.5325,0.007 3.065,-0.01 4.59625,-0.0188 0.0425,0 0.0825,-0.0412 0.19625,-0.10125 0,-1.72125 0,-3.48125 0,-5.2775 0.9725,0 1.87125,0 2.82,0 0,4.68875 0,9.37 0,14.1325" />
      <path
         inkscape:connector-curvature="0"
         id="path5529"
         style="fill:#000000;fill-opacity:1;fill-rule:evenodd;stroke:none"
         d="m 381.74607,494.6612 c 1.29875,0.0675 2.5475,0.13875 3.31375,-1.09875 0.5325,-0.8625 0.66375,-1.8325 0.0675,-2.70625 -0.83875,-1.22875 -2.1525,-0.83 -3.38125,-0.885 0,1.5725 0,3.08875 0,4.69 z m -0.055,1.92875 c 0,1.94625 0,3.7825 0,5.66375 -0.9625,0 -1.8575,0 -2.8025,0 0,-4.715 0,-9.39625 0,-14.19875 0.31125,0 0.60875,-0.001 0.9075,0 1.485,0.005 2.97125,-0.025 4.455,0.025 2.0725,0.07 3.47375,1.00125 3.94,2.53625 0.54,1.7725 -0.12875,3.725 -1.68375,4.91 -0.16875,0.12875 -0.34,0.255 -0.53375,0.4 1.15625,2.08875 2.3,4.1575 3.52,6.36 -1.1175,0 -2.13,0.0175 -3.13875,-0.0213 -0.13625,-0.005 -0.29875,-0.27875 -0.3875,-0.45875 -0.71125,-1.435 -1.4575,-2.8575 -2.08875,-4.3275 -0.30375,-0.7075 -0.6925,-1.01625 -1.4425,-0.89375 -0.20625,0.035 -0.42375,0.005 -0.745,0.005" />
      <path
         inkscape:connector-curvature="0"
         id="path5531"
         style="fill:#000000;fill-opacity:1;fill-rule:evenodd;stroke:none"
         d="m 410.32232,496.58745 c 1.30875,0 2.51,0 3.785,0 -0.63,-1.90625 -1.2325,-3.735 -1.87125,-5.6725 -0.665,1.97 -1.28125,3.7975 -1.91375,5.6725 z m -4.7575,5.7125 c 0.26,-0.64625 0.46,-1.1525 0.665,-1.65625 1.625,-3.98625 3.26,-7.9675 4.865,-11.9625 0.19125,-0.475 0.42125,-0.645 0.935,-0.64 1.715,0.0213 1.71625,0 2.32625,1.61625 1.49125,3.96125 2.9825,7.9225 4.47125,11.885 0.0813,0.21625 0.1425,0.43875 0.245,0.75625 -1.01,0 -1.9375,0.025 -2.86,-0.0225 -0.17125,-0.009 -0.40125,-0.285 -0.4775,-0.485 -0.35375,-0.93875 -0.6825,-1.89 -0.98,-2.84875 -0.1175,-0.37875 -0.28125,-0.54 -0.6975,-0.5325 -1.34125,0.025 -2.68375,0.025 -4.025,0 -0.40375,-0.007 -0.5975,0.13 -0.7275,0.505 -0.33875,0.9725 -0.72875,1.92375 -1.07,2.89375 -0.1325,0.375 -0.335,0.5225 -0.73625,0.5 -0.5925,-0.0325 -1.18875,-0.009 -1.93375,-0.009" />
      <path
         inkscape:connector-curvature="0"
         id="path5533"
         style="fill:#000000;fill-opacity:1;fill-rule:evenodd;stroke:none"
         d="m 373.53107,495.7612 c -1.5525,0 -3.0525,0 -4.60875,0 0,1.555 0,3.0425 0,4.60875 1.85375,0 3.685,0 5.5675,0 0,0.66 0,1.24375 0,1.88 -2.81125,0 -5.6,0 -8.44375,0 0,-4.7025 0,-9.4 0,-14.14625 2.51,0 5.0075,0 7.555,0 0,0.6075 0,1.19125 0,1.85 -1.56125,0 -3.10625,0 -4.6925,0 0,1.32625 0,2.57875 0,3.91 1.54875,0 3.0675,0 4.6225,0 0,0.64125 0,1.20625 0,1.8975" />
      <path
         inkscape:connector-curvature="0"
         id="path5535"
         style="fill:#000000;fill-opacity:1;fill-rule:evenodd;stroke:none"
         d="m 450.65482,488.1137 c 0,0.61625 0,1.185 0,1.82875 -1.55875,0 -3.1025,0 -4.68875,0 0,1.5925 0,3.10875 0,4.6925 1.53625,0 3.03625,0 4.59125,0 0,0.64875 0,1.23125 0,1.9025 -1.525,0 -3.04,0 -4.61875,0 0,1.94375 0,3.8025 0,5.71125 -0.98,0 -1.8975,0 -2.855,0 0,-4.71 0,-9.3925 0,-14.135 2.5025,0 5,0 7.57125,0" />
      <path
         inkscape:connector-curvature="0"
         id="path5537"
         style="fill:#000000;fill-opacity:1;fill-rule:evenodd;stroke:none"
         d="m 422.65482,502.23745 c 0,-4.71375 0,-9.3975 0,-14.1325 0.94125,0 1.85625,0 2.83,0 0,4.07125 0,8.10875 0,12.235 1.8825,0 3.70875,0 5.59625,0 0,0.66875 0,1.25125 0,1.8975 -2.77,0 -5.555,0 -8.42625,0" />
      <path
         inkscape:connector-curvature="0"
         id="path5539"
         style="fill:#000000;fill-opacity:1;fill-rule:evenodd;stroke:none"
         d="m 437.80982,502.26495 c -0.92375,0 -1.82125,0 -2.7675,0 0,-4.725 0,-9.42125 0,-14.16375 0.91125,0 1.80875,0 2.7675,0 0,4.68625 0,9.3825 0,14.16375" />
      <path
         inkscape:connector-curvature="0"
         id="path5541"
         style="fill:#ffffff;fill-opacity:1;fill-rule:evenodd;stroke:none"
         d="m 321.29107,495.2162 c -0.3775,4.67 4.835,10.50625 8.5725,9.70875 -1.33375,-4.55375 -4.01875,-7.87625 -8.5725,-9.70875 z m 11.095,9.7575 c 4.1,0.28 9.14625,-5.4625 8.49375,-9.60875 -3.24375,0.34875 -7.7075,5.37875 -8.49375,9.60875 z m -1.2775,-19.835 c -3.64375,5.22125 -3.7325,14.5375 0.009,19.8175 3.7175,-5.4475 3.405,-14.74625 -0.009,-19.8175 z m 10.87125,10.11875 c -0.015,5.99875 -4.90625,10.84 -10.925,10.815 -5.995,-0.0263 -10.8225,-4.91625 -10.8,-10.9425 0.0225,-5.95875 4.89875,-10.78 10.8925,-10.77125 6.01375,0.01 10.84625,4.87125 10.8325,10.89875" />
      <path
         inkscape:connector-curvature="0"
         id="path5543"
         style="fill:#000000;fill-opacity:1;fill-rule:evenodd;stroke:none"
         d="m 331.10857,485.1387 c 3.41375,5.07125 3.72625,14.37 0.009,19.8175 -3.7412,-5.28 -3.65245,-14.59625 -0.009,-19.8175" />
      <path
         inkscape:connector-curvature="0"
         id="path5545"
         style="fill:#000000;fill-opacity:1;fill-rule:evenodd;stroke:none"
         d="m 332.38607,504.9737 c 0.78625,-4.23 5.25,-9.26 8.49375,-9.60875 0.6525,4.14625 -4.39375,9.88875 -8.49375,9.60875" />
      <path
         inkscape:connector-curvature="0"
         id="path5547"
         style="fill:#000000;fill-opacity:1;fill-rule:evenodd;stroke:none"
         d="m 321.29107,495.2162 c 4.55375,1.8325 7.23875,5.155 8.5725,9.70875 -3.7375,0.7975 -8.95,-5.03875 -8.5725,-9.70875" />
    </g>
    <g
       id="g6940"
       transform="translate(99.642857,-206.07144)">
      <path
         inkscape:connector-curvature="0"
         id="path5467"
         style="fill:#000000;fill-opacity:1;fill-rule:nonzero;stroke:none"
         d="m 280.11366,591.98799 0.72875,0 2.06625,4.9975 2.07,-4.9975 0.705,0 -2.49625,5.8425 -0.57875,0 -2.495,-5.8425" />
      <path
         inkscape:connector-curvature="0"
         id="path5469"
         style="fill:#000000;fill-opacity:1;fill-rule:nonzero;stroke:none"
         d="m 294.78741,594.90424 0,-0.0163 c 0,-1.31875 -0.9625,-2.39375 -2.28875,-2.39375 -1.325,0 -2.27125,1.05875 -2.27125,2.3775 l 0,0.0162 c 0,1.31875 0.9625,2.395 2.28875,2.395 1.32625,0 2.27125,-1.06125 2.27125,-2.37875 z m -5.24,0 0,-0.0163 c 0,-1.59875 1.20375,-3 2.96875,-3 1.765,0 2.95,1.38375 2.95,2.98375 l 0,0.0162 c 0,1.6 -1.2,3 -2.9675,3 -1.765,0 -2.95125,-1.38375 -2.95125,-2.98375" />
      <path
         inkscape:connector-curvature="0"
         id="path5471"
         style="fill:#000000;fill-opacity:1;fill-rule:nonzero;stroke:none"
         d="m 302.60616,594.94674 c 0.87125,0 1.4925,-0.44625 1.4925,-1.1925 l 0,-0.0187 c 0,-0.7125 -0.5475,-1.14375 -1.48375,-1.14375 l -1.79,0 0,2.355 1.78125,0 z m -2.43375,-2.95875 2.49375,0 c 0.71,0 1.28375,0.215 1.65,0.58 0.28,0.28125 0.44625,0.68875 0.44625,1.14375 l 0,0.0163 c 0,0.96125 -0.66375,1.52375 -1.575,1.69125 l 1.78125,2.36875 -0.805,0 -1.68125,-2.25375 -1.6575,0 0,2.25375 -0.6525,0 0,-5.8" />
      <path
         inkscape:connector-curvature="0"
         id="path5473"
         style="fill:#000000;fill-opacity:1;fill-rule:nonzero;stroke:none"
         d="m 310.95866,592.59174 -1.94625,0 0,-0.60375 4.55625,0 0,0.60375 -1.94875,0 0,5.19625 -0.66125,0 0,-5.19625" />
      <path
         inkscape:connector-curvature="0"
         id="path5475"
         style="fill:#000000;fill-opacity:1;fill-rule:nonzero;stroke:none"
         d="m 318.11366,591.98799 4.1925,0 0,0.59625 -3.5375,0 0,1.98125 3.16625,0 0,0.5975 -3.16625,0 0,2.03 3.58,0 0,0.595 -4.235,0 0,-5.8" />
      <path
         inkscape:connector-curvature="0"
         id="path5477"
         style="fill:#000000;fill-opacity:1;fill-rule:nonzero;stroke:none"
         d="m 328.77616,594.82924 -2.145,-2.84125 0.7675,0 1.78375,2.37 1.765,-2.37 0.76125,0 -2.145,2.835 2.22875,2.965 -0.78,0 -1.85625,-2.49375 -1.855,2.49375 -0.755,0 2.23,-2.95875" />
      <path
         inkscape:connector-curvature="0"
         id="path5479"
         style="fill:#000000;fill-opacity:1;fill-rule:nonzero;stroke:none"
         d="m 311.35866,571.22674 c -0.425,-0.12625 -4.455,-0.60125 -4.455,-0.60125 0,0 0.375,-2.58 -0.97625,-2.93 l 0,8.94 c 0,0 0.0838,0.0438 0.2375,-0.55625 l 1.265,-0.27 c 0.54875,-0.2 0,-0.475 0,-0.475 l -1.03875,-0.42375 c 0.0888,-0.57 0.195,-1.33 0.31,-2.3375 2.04875,-0.0825 4.6575,-0.69625 4.6575,-0.69625 0.52875,-0.3 0,-0.65 0,-0.65" />
      <path
         inkscape:connector-curvature="0"
         id="path5481"
         style="fill:#000000;fill-opacity:1;fill-rule:nonzero;stroke:none"
         d="m 304.82491,570.62549 0.15,1.82625 c 0,0 -1.30125,0 -4.3575,-0.45 0,0 -0.85125,-0.34875 0,-0.97625 0,0 3.68125,-0.425 4.2075,-0.4" />
      <path
         inkscape:connector-curvature="0"
         id="path5483"
         style="fill:#000000;fill-opacity:1;fill-rule:nonzero;stroke:none"
         d="m 305.35116,574.91049 0.14875,1.175 -1.25,-0.27625 c 0,0 -0.52625,-0.2 0,-0.5275 l 1.10125,-0.37125" />
      <path
         inkscape:connector-curvature="0"
         id="path5485"
         style="fill:#000000;fill-opacity:1;fill-rule:nonzero;stroke:none"
         d="m 258.51366,565.65674 c 0.23,9.97875 9.9125,10.87125 10.32875,10.9025 l 24.6475,-0.001 c -0.2225,-8.7912 -8.56125,-10.7537 -9.2575,-10.9012 l -25.71875,0 z m 37.02875,16.53375 -27.56875,0 c -0.19,-0.02 -15.215,-1.89 -15.215,-16.89375 l 0,-0.36 31.58,0.009 c 0.1,0.02 9.87375,2.08875 9.87375,11.9725 l 0,0.36 -25.39875,0 c -0.135,-0.009 -10.78375,-0.97125 -11.01875,-11.62125 l -4.31375,0 c 0.23125,14.025 13.94625,15.74875 14.535,15.8175 l 27.52625,-0.003 0,0.71875" />
      <path
         inkscape:connector-curvature="0"
         id="path5487"
         style="fill:#000000;fill-opacity:1;fill-rule:nonzero;stroke:none"
         d="m 290.13866,576.91799 -0.7175,0 c 0,-6.6925 -6.5675,-7.1175 -6.84875,-7.1325 l -24.00375,0 0,-0.7175 24.0225,0 c 0.0962,0.004 7.5475,0.48625 7.5475,7.85" />
      <path
         inkscape:connector-curvature="0"
         id="path5489"
         style="fill:#000000;fill-opacity:1;fill-rule:nonzero;stroke:none"
         d="m 272.62991,577.12049 -7.90625,-11.62125 0.59375,-0.40375 7.90875,11.62125 -0.59625,0.40375" />
      <path
         inkscape:connector-curvature="0"
         id="path5491"
         style="fill:#000000;fill-opacity:1;fill-rule:nonzero;stroke:none"
         d="m 277.58116,577.12049 -7.905,-11.62125 0.5925,-0.40375 7.9075,11.62125 -0.595,0.40375" />
      <path
         inkscape:connector-curvature="0"
         id="path5493"
         style="fill:#000000;fill-opacity:1;fill-rule:nonzero;stroke:none"
         d="m 281.00491,573.53174 -20.0975,0 0,-0.71875 20.0875,0 c 0.0637,0 2.325,-0.02 4.63875,-1.98 l 3.505,-3.38125 0.49875,0.51625 -3.5225,3.3975 c -2.495,2.115 -4.885,2.16625 -5.11,2.16625" />
      <path
         inkscape:connector-curvature="0"
         id="path5495"
         style="fill:#000000;fill-opacity:1;fill-rule:nonzero;stroke:none"
         d="m 279.33991,573.37799 -5.46,-7.875 0.59125,-0.41125 5.46,7.87625 -0.59125,0.41" />
      <path
         inkscape:connector-curvature="0"
         id="path5497"
         style="fill:#000000;fill-opacity:1;fill-rule:nonzero;stroke:none"
         d="m 317.93866,576.55799 24.67625,0 c 0.39,-0.03 10.0725,-0.9225 10.30125,-10.90125 l -25.71875,0 c -0.6975,0.1475 -9.03875,2.11 -9.25875,10.90125 z m 20.12375,5.6325 0,-0.71875 5.3925,0 c 0.5475,-0.0662 14.2625,-1.79 14.4925,-15.815 l -4.315,0 c -0.23375,10.65 -10.87875,11.6125 -10.98875,11.62 l -25.42875,10e-4 0,-0.36 c 0,-9.88375 9.775,-11.9525 9.875,-11.9725 l 0.0688,-0.009 31.51125,0 0,0.36 c 0,15.00375 -15.0225,16.87375 -15.1775,16.89 l -5.43,0.004" />
      <path
         inkscape:connector-curvature="0"
         id="path5499"
         style="fill:#000000;fill-opacity:1;fill-rule:nonzero;stroke:none"
         d="m 322.00866,576.91799 -0.7175,0 c 0,-7.36375 7.45125,-7.84625 7.5275,-7.85 l 24.04125,0 0,0.7175 -24.02375,0 c -0.25875,0.0163 -6.8275,0.455 -6.8275,7.1325" />
      <path
         inkscape:connector-curvature="0"
         id="path5501"
         style="fill:#000000;fill-opacity:1;fill-rule:nonzero;stroke:none"
         d="m 338.79991,577.12049 -0.595,-0.40375 7.9075,-11.62125 0.5925,0.40375 -7.905,11.62125" />
      <path
         inkscape:connector-curvature="0"
         id="path5503"
         style="fill:#000000;fill-opacity:1;fill-rule:nonzero;stroke:none"
         d="m 333.84616,577.12049 -0.59375,-0.40375 7.9075,-11.62125 0.5925,0.40375 -7.90625,11.62125" />
      <path
         inkscape:connector-curvature="0"
         id="path5505"
         style="fill:#000000;fill-opacity:1;fill-rule:nonzero;stroke:none"
         d="m 330.42366,573.53174 c -0.225,0 -2.615,-0.0512 -5.09375,-2.14875 l -3.54,-3.415 0.50125,-0.51625 3.52,3.3975 c 2.2975,1.945 4.5625,1.96375 4.6175,1.96375 l 20.09875,0 0,0.71875 -20.10375,0" />
      <path
         inkscape:connector-curvature="0"
         id="path5507"
         style="fill:#000000;fill-opacity:1;fill-rule:nonzero;stroke:none"
         d="m 332.08741,573.37799 -0.59,-0.41 5.4625,-7.87625 0.59125,0.41125 -5.46375,7.875" />
      <path
         inkscape:connector-curvature="0"
         id="path5509"
         style="fill:#000000;fill-opacity:1;fill-rule:nonzero;stroke:none"
         d="m 302.22741,584.77049 0,-0.71875 8.16,0 c 0.26,-0.0163 6.8275,-0.4575 6.8275,-7.13375 l 0.71875,0 c 0,7.36375 -7.4525,7.84625 -7.52875,7.8525 l -8.1775,0" />
      <path
         inkscape:connector-curvature="0"
         id="path5511"
         style="fill:#000000;fill-opacity:1;fill-rule:nonzero;stroke:none"
         d="m 310.59866,584.77049 -9.55625,0 c -0.095,-0.006 -7.5475,-0.48875 -7.5475,-7.8525 l 0.7175,0 c 0,6.6925 6.56875,7.11875 6.8475,7.13375 l 9.53875,0 0,0.71875" />
      <path
         inkscape:connector-curvature="0"
         id="path5513"
         style="fill:#000000;fill-opacity:1;fill-rule:nonzero;stroke:none"
         d="m 315.88491,581.47174 25.57125,0 0,0.71875 -25.57125,0 0,-0.71875 z" />
      <path
         inkscape:connector-curvature="0"
         id="path5515"
         style="fill:#000000;fill-opacity:1;fill-rule:nonzero;stroke:none"
         d="m 305.85241,564.69924 c -4.005,0 -7.26625,3.26 -7.26625,7.2675 0,4.00875 3.26125,7.27 7.26625,7.27 4.01,0 7.27125,-3.26125 7.27125,-7.27 0,-4.0075 -3.26125,-7.2675 -7.27125,-7.2675 z m 0,15.255 c -4.40375,0 -7.985,-3.58125 -7.985,-7.9875 0,-4.40375 3.58125,-7.9875 7.985,-7.9875 4.40625,0 7.98875,3.58375 7.98875,7.9875 0,4.40625 -3.5825,7.9875 -7.98875,7.9875" />
    </g>
    <g
       id="g7000"
       transform="translate(-274.99999,-89.642856)">
      <path
         inkscape:connector-curvature="0"
         id="path5455"
         style="fill:#000000;fill-opacity:1;fill-rule:nonzero;stroke:none"
         d="m 529.7442,456.52388 3.23125,0 5.01125,12.77875 4.98875,-12.77875 3.15875,0 -6.9125,16.745 -2.565,0 -6.9125,-16.745" />
      <path
         inkscape:connector-curvature="0"
         id="path5457"
         style="fill:#000000;fill-opacity:1;fill-rule:nonzero;stroke:none"
         d="m 553.2567,456.52388 12.32625,0 0,2.61375 -9.405,0 0,4.3225 8.33625,0 0,2.6125 -8.33625,0 0,4.465 9.52375,0 0,2.6125 -12.445,0 0,-16.62625" />
      <path
         inkscape:connector-curvature="0"
         id="path5459"
         style="fill:#000000;fill-opacity:1;fill-rule:nonzero;stroke:none"
         d="m 584.63045,464.76638 0,-5.5825 -4.2525,0 c -2.16125,0 -3.44375,0.975 -3.44375,2.75625 l 0,0.0475 c 0,1.68625 1.33,2.77875 3.42125,2.77875 l 4.275,0 z m 2.92125,8.38375 -2.92125,0 0,-5.795 -3.6575,0 -4.085,5.795 -3.445,0 4.48875,-6.29375 c -2.32625,-0.665 -3.96625,-2.30375 -3.96625,-5.03625 l 0,-0.0462 c 0,-1.45 0.49875,-2.685 1.3775,-3.58625 1.06875,-1.04625 2.70875,-1.66375 4.79875,-1.66375 l 7.41,0 0,16.62625" />
      <path
         inkscape:connector-curvature="0"
         id="path5461"
         style="fill:#000000;fill-opacity:1;fill-rule:nonzero;stroke:none"
         d="m 602.6067,470.56138 c 1.995,0 3.20625,-0.78375 3.20625,-2.28 l 0,-0.0475 c 0,-1.40125 -1.115,-2.2325 -3.42,-2.2325 l -4.63125,0 0,4.56 4.845,0 z m -0.855,-7.03 c 1.87625,0 3.13625,-0.7375 3.13625,-2.25625 l 0,-0.0475 c 0,-1.3075 -1.04625,-2.11375 -2.92125,-2.11375 l -4.205,0 0,4.4175 3.99,0 z m -6.86375,-7.0075 7.45875,0 c 1.89875,0 3.39625,0.5225 4.345,1.47375 0.7375,0.735 1.1175,1.63875 1.1175,2.755 l 0,0.0462 c 0,1.995 -1.14,3.065 -2.375,3.70625 1.94625,0.665 3.30125,1.78 3.30125,4.0375 l 0,0.0475 c 0,2.96875 -2.44625,4.56 -6.1525,4.56 l -7.695,0 0,-16.62625" />
      <path
         inkscape:connector-curvature="0"
         id="path5463"
         style="fill:#000000;fill-opacity:1;fill-rule:nonzero;stroke:none"
         d="m 609.43545,454.67263 -0.7,0 0,-0.36 1.79375,0 0,0.36 -0.7,0 0,1.85125 -0.39375,0 0,-1.85125" />
      <path
         inkscape:connector-curvature="0"
         id="path5465"
         style="fill:#000000;fill-opacity:1;fill-rule:nonzero;stroke:none"
         d="m 610.94045,454.31263 0.4125,0 0.6725,1.04625 0.67375,-1.04625 0.41375,0 0,2.21125 -0.38875,0 0,-1.58625 -0.69875,1.0425 -0.0113,0 -0.6925,-1.035 0,1.57875 -0.38125,0 0,-2.21125" />
    </g>
    <g
       id="g7116"
       transform="translate(261.07143,-170.71429)">
      <path
         inkscape:connector-curvature="0"
         id="path5447"
         style="fill:#000000;fill-opacity:1;fill-rule:evenodd;stroke:none"
         d="m 60.960515,565.77704 -0.19,-0.055 c 0,-0.19875 0.01875,-0.4 -0.0038,-0.59625 -0.0675,-0.6175 -0.2275,-1.33 -0.88,-1.4025 -0.41875,-0.0475 -1.00125,0.35375 -1.33125,0.715 -1.04625,1.15 -1.5025,2.56125 -1.52,4.11 -0.01,1 0.45125,1.83875 1.055,1.96875 0.525,0.11375 1.4475,-0.45875 1.7675,-1.2825 0.4375,-1.125 0.74125,-2.30125 1.1025,-3.4575 z m 4.185,-6.2525 c -0.23875,-0.19625 -0.36625,-0.3 -0.55125,-0.45125 0.1475,-0.0188 0.215,-0.0425 0.2775,-0.0313 0.9725,0.16875 1.94375,0.34125 2.915,0.5125 0.60375,0.105 1.03125,-0.14625 1.42625,-0.6 0.61125,-0.6975 1.37125,-1.07 2.3375,-0.8125 0.72375,0.1925 1.13125,0.64625 1.08875,1.39875 -0.02375,0.44125 -0.10375,0.89875 -0.26375,1.30875 -0.60625,1.5575 -1.2775,3.09 -1.8775,4.65 -0.22125,0.575 -0.36125,1.1925 -0.44875,1.80375 -0.07125,0.49 0.22125,0.71125 0.6975,0.49875 0.4075,-0.18 0.845,-0.3575 1.17125,-0.64625 1.75125,-1.56 3.475,-3.1525 5.2025,-4.73875 0.73625,-0.675 1.4475,-1.38 2.19875,-2.03875 0.31375,-0.275 0.67625,-0.52875 1.06125,-0.6825 1.135,-0.455 1.8475,0.115 1.63125,1.3075 -0.38375,2.11125 -0.82875,4.2125 -1.20375,6.325 -0.09875,0.5575 -0.09875,1.15125 -0.02625,1.71375 0.13875,1.08875 0.76375,1.54875 1.85875,1.49875 1.23875,-0.0562 2.14,-0.7575 2.99,-1.55 0.26375,-0.24625 0.47375,-0.55125 0.70875,-0.83 l 0.1925,0.19 c -1.08125,1.1925 -2.1175,2.43 -3.2575,3.5625 -1.09875,1.09125 -2.6075,1.22375 -3.9475,0.5075 -1.18875,-0.6375 -2.035,-2.25625 -1.84,-3.59625 0.12125,-0.83875 0.3075,-1.6675 0.44875,-2.505 0.0425,-0.25375 0.03,-0.515 0.04375,-0.77375 l -0.19,-0.10125 c -0.245,0.25375 -0.50375,0.495 -0.73125,0.7625 -1.6425,1.93375 -3.405,3.75125 -5.65875,4.96125 -0.88125,0.4725 -1.89625,0.795 -2.885,0.94625 -1.35625,0.2075 -2.34125,-0.7125 -2.1975,-2.06875 0.12625,-1.20125 0.4725,-2.3925 0.8375,-3.55125 0.38,-1.21125 0.9075,-2.3775 1.34875,-3.57125 0.14625,-0.39625 0.265,-0.81125 0.32625,-1.2275 0.14,-0.9575 -0.25,-1.4975 -1.21125,-1.5925 -1.00875,-0.0987 -2.0275,-0.11625 -3.0425,-0.15 -0.755,-0.0238 -0.995,0.42125 -0.97,1.10875 0.06,1.6475 0.1375,3.29375 0.1525,4.9425 0.03375,3.6425 -1.8925,6.03 -4.9925,7.6275 -1.0975,0.56625 -2.12,0.2425 -3.00125,-0.465 -1.05125,-0.8425 -1.67875,-1.95125 -1.75125,-3.34375 -0.13,-2.45625 0.48625,-4.66875 1.58125,-6.90125 0.79,-1.61125 1.80875,-2.94 2.97,-4.21875 0.72,-0.79 1.69875,-1.09125 2.7325,-0.8825 0.47125,0.095 1.025,0.405 1.29,0.78875 0.63125,0.91875 1.475,0.9775 2.55875,0.915" />
      <path
         inkscape:connector-curvature="0"
         id="path5449"
         style="fill:#000000;fill-opacity:1;fill-rule:evenodd;stroke:none"
         d="m 51.991765,555.26204 c 0.57125,-0.7525 1.06125,-1.37625 1.53,-2.015 1.6975,-2.3175 3.355,-4.665 5.10125,-6.945 0.58375,-0.7625 1.33625,-1.42125 2.10875,-1.99875 0.33125,-0.2475 0.96125,-0.32875 1.36,-0.1975 0.56625,0.18875 0.7975,0.83375 0.61125,1.37875 -0.26625,0.7825 -0.56375,1.6325 -1.0975,2.2325 -2.225,2.50375 -4.54875,4.91875 -6.25625,7.8325 -0.24125,0.41 -0.50625,0.805 -0.725,1.225 -2.6275,5.04625 -5.42875,10.0075 -7.5225,15.31625 -0.145,0.37 -0.355,0.715 -0.54625,1.065 l -0.23125,0.27625 c -0.87625,-0.57375 -1.45375,-2.02 -1.07125,-3.20375 0.56625,-1.75125 1.21875,-3.48625 1.9825,-5.16 0.86,-1.8825 1.86125,-3.7025 2.8475,-5.525 0.49125,-0.91125 0.35625,-1.68125 -0.2,-2.5075 -2.49125,-3.71125 -4.9625,-7.435 -7.41375,-11.17125 -0.39125,-0.5975 -0.6725,-1.275 -0.95375,-1.93625 -0.245,-0.57125 -0.215,-1.245 0.295,-1.56625 0.335,-0.21125 0.9725,-0.1375 1.3925,0.0213 1.18625,0.44875 2.2575,1.1425 2.925,2.245 1.0575,1.74875 2.04875,3.54125 3.02375,5.34 0.83125,1.53375 1.5975,3.1025 2.4,4.65375 0.0875,0.17 0.21625,0.31875 0.44,0.64" />
      <path
         inkscape:connector-curvature="0"
         id="path5451"
         style="fill:#000000;fill-opacity:1;fill-rule:evenodd;stroke:none"
         d="m 104.33676,547.63704 c -0.004,2.6425 -1.28375,4.54625 -2.95,6.11375 -1.609995,1.51625 -3.439995,2.8125 -5.249995,4.09875 -1.5475,1.1 -2.86875,2.3925 -4.03,3.87875 -0.53625,0.68625 -1.13625,1.3275 -1.75625,1.9375 -0.1775,0.175 -0.58875,0.30125 -0.78625,0.2125 -0.20125,-0.09 -0.42125,-0.505 -0.37375,-0.71875 0.2125,-0.93625 0.3675,-1.935 0.81875,-2.75875 1.28125,-2.335 3.2975,-4.00625 5.52125,-5.37875 1.99125,-1.22875 3.5625,-2.79875 4.682495,-4.835 0.18,-0.3275 0.335,-0.67125 0.465,-1.02125 0.5325,-1.4325 0.0662,-2.555 -1.418745,-2.9625 -0.8325,-0.22875 -1.81625,-0.30625 -2.63625,-0.0925 -1.53,0.4 -2.92375,1.1225 -3.76125,2.62875 -0.21,0.37625 -0.79125,0.85875 -1.09125,0.7925 -0.4,-0.0863 -0.7875,-0.61375 -1.01125,-1.04 -0.4925,-0.935 -0.27875,-1.82875 0.38,-2.64 2.02125,-2.49125 6.12375,-4.71625 10.497495,-2.50125 1.76,0.8925 2.8325,2.35 2.7,4.28625" />
      <path
         inkscape:connector-curvature="0"
         id="path5453"
         style="fill:#000000;fill-opacity:1;fill-rule:evenodd;stroke:none"
         d="m 89.235515,573.44704 c -1.155,-0.0863 -1.94625,-0.38625 -2.385,-1.2725 -0.28875,-0.5825 -0.2825,-1.15 0.13875,-1.68375 0.44875,-0.56625 1.0525,-0.8675 1.715,-0.60875 0.97,0.37875 1.905,0.86375 2.81125,1.38125 0.27875,0.16 0.59625,0.59625 0.56125,0.8625 -0.0325,0.26 -0.46,0.55125 -0.775,0.67375 -0.73875,0.28625 -1.515,0.48 -2.06625,0.6475" />
    </g>
  </g>
</svg>
