<?xml version="1.0" encoding="UTF-8" standalone="no"?>
<!-- Created with Inkscape (http://www.inkscape.org/) -->

<svg
   xmlns:dc="http://purl.org/dc/elements/1.1/"
   xmlns:cc="http://creativecommons.org/ns#"
   xmlns:rdf="http://www.w3.org/1999/02/22-rdf-syntax-ns#"
   xmlns:svg="http://www.w3.org/2000/svg"
   xmlns="http://www.w3.org/2000/svg"
   xmlns:sodipodi="http://sodipodi.sourceforge.net/DTD/sodipodi-0.dtd"
   xmlns:inkscape="http://www.inkscape.org/namespaces/inkscape"
   width="85.192497"
   height="19.37125"
   id="svg4349"
   version="1.1"
   inkscape:version="0.48.4 r9939"
   sodipodi:docname="verb_logo.svg">
  <defs
     id="defs4351" />
  <sodipodi:namedview
     id="base"
     pagecolor="#ffffff"
     bordercolor="#666666"
     borderopacity="1.0"
     inkscape:pageopacity="0.0"
     inkscape:pageshadow="2"
     inkscape:zoom="0.35"
     inkscape:cx="223.31054"
     inkscape:cy="-244.60008"
     inkscape:document-units="px"
     inkscape:current-layer="layer1"
     showgrid="false"
     fit-margin-top="0"
     fit-margin-left="0"
     fit-margin-right="0"
     fit-margin-bottom="0"
     inkscape:window-width="1803"
     inkscape:window-height="1060"
     inkscape:window-x="115"
     inkscape:window-y="-3"
     inkscape:window-maximized="1" />
  <metadata
     id="metadata4354">
    <rdf:RDF>
      <cc:Work
         rdf:about="">
        <dc:format>image/svg+xml</dc:format>
        <dc:type
           rdf:resource="http://purl.org/dc/dcmitype/StillImage" />
        <dc:title></dc:title>
      </cc:Work>
    </rdf:RDF>
  </metadata>
  <g
     inkscape:label="Layer 1"
     inkscape:groupmode="layer"
     id="layer1"
     transform="translate(-151.68946,-268.39085)">
    <g
       transform="matrix(1.25,0,0,-1.25,62.716964,1284.7371)"
       id="g4324">
      <path
         inkscape:connector-curvature="0"
         id="path3356"
         style="fill:#ffffff;fill-opacity:1;fill-rule:nonzero;stroke:none"
         d="m 71.178,811.27 2.641,0 4.097,-10.447 4.078,10.447 2.582,0 -5.65,-13.69 -2.097,0 -5.651,13.69" />
      <path
         inkscape:connector-curvature="0"
         id="path3358"
         style="fill:#ffffff;fill-opacity:1;fill-rule:nonzero;stroke:none"
         d="m 90.399,811.27 10.077,0 0,-2.137 -7.689,0 0,-3.534 6.816,0 0,-2.135 -6.816,0 0,-3.651 7.786,0 0,-2.135 -10.174,0 0,13.592" />
      <path
         inkscape:connector-curvature="0"
         id="path3360"
         style="fill:#ffffff;fill-opacity:1;fill-rule:nonzero;stroke:none"
         d="m 116.047,804.532 0,4.563 -3.476,0 c -1.767,0 -2.815,-0.796 -2.815,-2.253 l 0,-0.039 c 0,-1.378 1.087,-2.271 2.797,-2.271 l 3.494,0 z m 2.389,-6.854 -2.389,0 0,4.737 -2.99,0 -3.339,-4.737 -2.816,0 3.67,5.145 c -1.903,0.544 -3.243,1.883 -3.243,4.117 l 0,0.038 c 0,1.185 0.408,2.194 1.126,2.932 0.874,0.855 2.214,1.36 3.923,1.36 l 6.058,0 0,-13.592" />
      <path
         inkscape:connector-curvature="0"
         id="path3362"
         style="fill:#ffffff;fill-opacity:1;fill-rule:nonzero;stroke:none"
         d="m 130.743,799.794 c 1.631,0 2.621,0.64 2.621,1.864 l 0,0.038 c 0,1.146 -0.912,1.825 -2.795,1.825 l -3.787,0 0,-3.727 3.961,0 z m -0.699,5.747 c 1.534,0 2.564,0.602 2.564,1.845 l 0,0.039 c 0,1.068 -0.855,1.728 -2.388,1.728 l -3.438,0 0,-3.612 3.262,0 z m -5.611,5.729 6.097,0 c 1.553,0 2.777,-0.428 3.553,-1.205 0.602,-0.601 0.913,-1.339 0.913,-2.252 l 0,-0.039 c 0,-1.631 -0.932,-2.504 -1.941,-3.029 1.591,-0.544 2.698,-1.455 2.698,-3.3 l 0,-0.039 c 0,-2.428 -1.999,-3.728 -5.029,-3.728 l -6.291,0 0,13.592" />
      <path
         inkscape:connector-curvature="0"
         id="path3364"
         style="fill:#ffffff;fill-opacity:1;fill-rule:nonzero;stroke:none"
         d="m 136.326,812.783 -0.573,0 0,0.294 1.467,0 0,-0.294 -0.573,0 0,-1.513 -0.321,0 0,1.513" />
      <path
         inkscape:connector-curvature="0"
         id="path3366"
         style="fill:#ffffff;fill-opacity:1;fill-rule:nonzero;stroke:none"
         d="m 137.556,813.077 0.337,0 0.55,-0.855 0.551,0.855 0.338,0 0,-1.807 -0.317,0 0,1.296 -0.572,-0.852 -0.01,0 -0.565,0.847 0,-1.291 -0.312,0 0,1.807" />
    </g>
  </g>
</svg>
